Coordinates
version=1
nRows=33
nColumns=33
inDegrees=yes

Units are S.I. units (second, meters, Newtons, ...)
Angles are in degrees.

endheader
time	ground_thorax_rot_x	ground_thorax_rot_y	ground_thorax_rot_z	ground_thorax_tx	ground_thorax_ty	ground_thorax_tz	clav_prot_r	clav_elev_r	scapula_abduction_r	scapula_elevation_r	scapula_upward_rot_r	scapula_winging_r	shoulder_elv_r	plane_of_elev_r	axial_rot_r	elbow_flexion_r	pro_sup_r	wrist_flex_r	wrist_dev_r	clav_prot_l	clav_elev_l	scapula_abduction_l	scapula_elevation_l	scapula_upward_rot_l	scapula_winging_l	shoulder_elv_l	plane_of_elev_l	axial_rot_l	elbow_flexion_l	pro_sup_l	wrist_flex_l	wrist_dev_l	
2.9000	3.141190	-4.671316	11.599591	-0.117538	1.045358	0.003965	7.857064	-2.289812	24.197980	-3.112674	18.718898	-9.658881	55.720278	29.785206	-22.906678	105.293155	52.420466	8.865851	-2.392915	11.587926	-5.684736	-20.799069	-0.310810	-1.328671	6.086149	55.973263	48.074260	11.283455	100.998316	26.866680	-10.269868	-11.419421	
2.9100	3.146650	-4.606024	11.642063	-0.117737	1.045321	0.003849	7.968129	-2.513015	24.159774	-3.184685	18.354325	-9.564992	55.669531	29.347736	-22.848714	106.664220	52.186760	8.982307	-2.703116	11.598239	-5.780973	-20.740351	-0.302791	-1.510941	6.021758	55.896311	48.074736	10.932382	101.701383	27.097825	-10.353496	-11.504661	
2.9200	3.153344	-4.543215	11.678987	-0.117907	1.045280	0.003748	8.077247	-2.749811	24.100189	-3.258456	17.960782	-9.457349	55.603336	28.908793	-22.773062	108.040903	51.930460	9.121509	-2.981312	11.603117	-5.890260	-20.668271	-0.288267	-1.704848	5.946845	55.815124	48.066018	10.562715	102.400583	27.287187	-10.410188	-11.580121	
2.9300	3.163016	-4.481293	11.710606	-0.118049	1.045232	0.003661	8.187593	-3.000756	24.028468	-3.336073	17.543466	-9.339032	55.530083	28.460475	-22.678445	109.417447	51.652875	9.288184	-3.234714	11.603818	-6.009916	-20.585438	-0.269071	-1.909162	5.863262	55.726458	48.051098	10.176762	103.093553	27.451141	-10.442606	-11.647432	
2.9400	3.178877	-4.421453	11.735119	-0.118161	1.045179	0.003586	8.298207	-3.268369	23.948076	-3.421655	17.108869	-9.210230	55.455849	28.002247	-22.563295	110.784718	51.344898	9.490720	-3.454992	11.598723	-6.139082	-20.489467	-0.245540	-2.122890	5.770402	55.628651	48.031891	9.776621	103.783727	27.592442	-10.447560	-11.707423	
2.9500	3.196815	-4.362739	11.758568	-0.118250	1.045132	0.003511	8.415397	-3.562927	23.872997	-3.525021	16.660119	-9.072002	55.385854	27.509436	-22.431404	112.144522	50.986075	9.739653	-3.643211	11.587227	-6.278586	-20.379340	-0.217003	-2.346185	5.667459	55.507897	48.011094	9.349979	104.464093	27.737705	-10.426115	-11.758267	
2.9600	3.214266	-4.309143	11.778294	-0.118307	1.045097	0.003437	8.537495	-3.889774	23.807501	-3.654000	16.206983	-8.924265	55.314711	26.977341	-22.292258	113.494252	50.525515	10.051453	-3.751000	11.563080	-6.425857	-20.247175	-0.182740	-2.572020	5.552204	55.360626	47.987455	8.892314	105.137964	27.889962	-10.371166	-11.798720	
2.9700	3.228757	-4.263264	11.791875	-0.118324	1.045078	0.003366	8.662744	-4.248280	23.758118	-3.813324	15.764791	-8.769521	55.229046	26.395959	-22.162983	114.832372	49.930507	10.462659	-3.749986	11.520344	-6.575370	-20.086664	-0.143557	-2.790840	5.423984	55.181972	47.958678	8.400068	105.806097	28.053899	-10.278423	-11.828321	
2.9800	3.241656	-4.223524	11.798300	-0.118286	1.045086	0.003284	8.789777	-4.649701	23.740519	-4.021870	15.360005	-8.609444	55.129679	25.729093	-22.065027	116.164279	49.010274	11.012861	-3.457878	11.449392	-6.728352	-19.883119	-0.096360	-2.997976	5.276296	54.941867	47.935377	7.849880	106.468370	28.246523	-10.132611	-11.838132	
2.9900	3.249801	-4.201323	11.785359	-0.118192	1.045100	0.003204	8.918244	-5.083457	23.779545	-4.284665	15.034029	-8.457137	54.978071	24.969723	-22.010987	117.441375	47.923210	11.847234	-3.050644	11.344312	-6.859489	-19.637175	-0.051705	-3.165356	5.119063	54.637982	47.910000	7.251219	107.133592	28.468582	-9.937653	-11.832289	
3.0000	3.261078	-4.194831	11.755461	-0.118044	1.045099	0.003135	9.043028	-5.527939	23.862111	-4.582039	14.783222	-8.315939	54.772140	24.147997	-21.962916	118.641508	46.685211	12.874343	-2.686284	11.216426	-6.967338	-19.365266	-0.013639	-3.299542	4.959542	54.291683	47.881715	6.625431	107.803314	28.705986	-9.710656	-11.819701	
3.0100	3.284940	-4.209991	11.706199	-0.117846	1.045047	0.003094	9.152424	-5.943439	23.986473	-4.891266	14.641198	-8.200046	54.460140	23.304085	-21.817001	119.733031	45.163409	13.834629	-3.120508	11.064052	-7.045639	-19.067080	0.015205	-3.393744	4.800191	53.917457	47.845856	5.995411	108.479842	28.947090	-9.458302	-11.807041	
3.0200	3.319388	-4.228004	11.654694	-0.117627	1.044978	0.003068	9.242898	-6.366091	24.097199	-5.217401	14.529301	-8.072172	54.128595	22.470943	-21.543751	120.735639	43.336843	14.574921	-4.319422	10.917162	-7.126065	-18.778014	0.045327	-3.489589	4.643915	53.565796	47.798690	5.376905	109.148113	29.172225	-9.213331	-11.806534	
3.0300	3.360776	-4.245883	11.602248	-0.117407	1.044880	0.003068	9.318375	-6.773842	24.176650	-5.529351	14.412228	-7.934934	53.786888	21.696184	-21.149893	121.652850	41.476185	15.070204	-6.366646	10.791047	-7.206621	-18.520838	0.071437	-3.595352	4.501115	53.274064	47.737820	4.796345	109.803200	29.364013	-8.998875	-11.826882	
3.0400	3.408992	-4.241381	11.564303	-0.117209	1.044778	0.003080	9.387925	-7.171696	24.173166	-5.795682	14.184927	-7.767340	53.530109	21.024978	-20.708441	122.537201	39.865095	15.340492	-8.594807	10.718689	-7.312200	-18.333604	0.095451	-3.758449	4.377409	53.091979	47.669288	4.271456	110.432485	29.500445	-8.845433	-11.876676	
3.0500	3.471031	-4.219272	11.528003	-0.117014	1.044649	0.003107	9.456262	-7.520820	24.113339	-5.992760	13.878055	-7.597185	53.330325	20.464054	-20.263621	123.410183	38.502675	15.386802	-10.809176	10.683296	-7.431409	-18.192941	0.113144	-3.964756	4.267309	52.992952	47.611740	3.795132	111.042684	29.592174	-8.732016	-11.943547	
3.0600	3.530835	-4.170171	11.505023	-0.116835	1.044550	0.003121	9.538928	-7.870643	23.994390	-6.145756	13.440558	-7.403050	53.255595	19.972007	-19.925565	124.293849	37.578449	15.454413	-12.315880	10.688902	-7.577722	-18.099589	0.129060	-4.231544	4.165448	52.972961	47.565811	3.339388	111.624698	29.647944	-8.651273	-12.023024	
3.0700	3.591474	-4.114424	11.474854	-0.116650	1.044443	0.003138	9.639096	-8.185696	23.868367	-6.248823	12.946809	-7.220485	53.237801	19.535126	-19.716749	125.153864	37.149285	15.650537	-13.178538	10.707159	-7.717729	-18.021788	0.132264	-4.514525	4.071514	52.991848	47.538530	2.901478	112.194748	29.682965	-8.577593	-12.105612	
3.0800	3.636906	-4.055615	11.454896	-0.116468	1.044378	0.003134	9.763874	-8.515531	23.738567	-6.338556	12.378735	-7.028029	53.302060	19.111306	-19.623028	125.976099	37.135426	15.981938	-13.542945	10.724764	-7.863202	-17.933108	0.128808	-4.823973	3.969544	53.034579	47.523722	2.447546	112.741709	29.707702	-8.483276	-12.187063	
3.0900	3.684896	-4.009697	11.423790	-0.116258	1.044316	0.003134	9.894545	-8.838954	23.634142	-6.429349	11.832493	-6.846103	53.382496	18.702045	-19.559315	126.731852	37.110772	16.260224	-13.892058	10.715082	-7.995892	-17.803340	0.119581	-5.119767	3.854813	53.061939	47.525666	1.984879	113.283240	29.736979	-8.351615	-12.260981	
3.1000	3.714907	-3.968900	11.408110	-0.116052	1.044314	0.003124	10.032299	-9.202037	23.535164	-6.547829	11.269462	-6.647302	53.500122	18.275451	-19.523632	127.418919	37.080121	16.560551	-14.279556	10.688600	-8.133192	-17.644737	0.113029	-5.418568	3.725856	53.083415	47.520935	1.497577	113.802174	29.772907	-8.188948	-12.337099	
3.1100	3.750198	-3.933819	11.389615	-0.115834	1.044306	0.003141	10.161517	-9.541699	23.440735	-6.655067	10.735157	-6.460009	53.606494	17.882679	-19.502928	128.032747	37.045856	16.846648	-14.649873	10.656237	-8.255848	-17.483900	0.101484	-5.698259	3.601735	53.104644	47.511969	1.033067	114.312661	29.807081	-8.027224	-12.424556	
3.1200	3.778480	-3.897236	11.393785	-0.115619	1.044324	0.003161	10.287893	-9.870213	23.342246	-6.751112	10.199243	-6.275183	53.707633	17.500045	-19.500691	128.589911	37.005131	17.136790	-15.022507	10.618428	-8.379644	-17.312751	0.088670	-5.982926	3.472428	53.116290	47.496831	0.563484	114.794076	29.849114	-7.853024	-12.526668	
3.1300	3.819577	-3.862894	11.396085	-0.115391	1.044316	0.003214	10.397793	-10.149615	23.241530	-6.818280	9.704956	-6.110802	53.776629	17.171836	-19.507486	129.083574	36.962158	17.402343	-15.350778	10.581934	-8.487075	-17.150655	0.068208	-6.250990	3.353360	53.125144	47.481424	0.128451	115.261355	29.894631	-7.694445	-12.648065	
3.1400	3.849003	-3.832977	11.420560	-0.115156	1.044340	0.003270	10.500869	-10.438338	23.122386	-6.887819	9.195751	-5.932910	53.861170	16.864216	-19.529732	129.522825	36.907409	17.699590	-15.695530	10.528120	-8.591449	-16.956287	0.041015	-6.527892	3.221006	53.116046	47.470973	-0.317631	115.692423	29.966523	-7.517775	-12.796457	
3.1500	3.881723	-3.810645	11.443350	-0.114904	1.044358	0.003348	10.588297	-10.719066	22.992055	-6.958189	8.709469	-5.752633	53.955575	16.602310	-19.556958	129.902855	36.849951	18.008097	-16.028186	10.463000	-8.678046	-16.747175	0.002651	-6.793327	3.088858	53.097296	47.470607	-0.744362	116.100954	30.056282	-7.344675	-12.961832	
3.1600	3.902442	-3.792562	11.482118	-0.114651	1.044407	0.003425	10.669072	-11.022902	22.849328	-7.046455	8.217666	-5.555622	54.082750	16.351766	-19.589837	130.237734	36.796166	18.347392	-16.374981	10.384656	-8.759695	-16.514389	-0.042190	-7.063020	2.947857	53.064889	47.477178	-1.178419	116.473852	30.167274	-7.159761	-13.133555	
3.1700	3.931024	-3.769030	11.526298	-0.114412	1.044433	0.003519	10.733568	-11.288340	22.706560	-7.116807	7.771091	-5.376034	54.186403	16.130749	-19.617482	130.538028	36.770996	18.654900	-16.661100	10.320927	-8.831419	-16.311921	-0.090718	-7.320207	2.823560	53.033293	47.481588	-1.578304	116.819590	30.278281	-7.004269	-13.292288	
3.1800	3.959272	-3.736041	11.580522	-0.114198	1.044451	0.003614	10.784683	-11.517840	22.562118	-7.168003	7.359654	-5.212021	54.264724	15.925956	-19.643726	130.811903	36.797250	18.931128	-16.870253	10.273746	-8.902328	-16.141975	-0.136162	-7.568412	2.713677	53.004197	47.482375	-1.954895	117.129257	30.390791	-6.873837	-13.437331	
3.1900	4.003527	-3.687829	11.625251	-0.114023	1.044415	0.003716	10.815762	-11.675328	22.429642	-7.184641	7.027957	-5.086099	54.293132	15.749850	-19.666023	131.061430	36.914214	19.132210	-16.930996	10.258696	-8.968141	-16.039502	-0.172251	-7.784619	2.635850	52.991217	47.477999	-2.274291	117.402333	30.487423	-6.793682	-13.553839	
3.2000	4.052111	-3.624525	11.651277	-0.113868	1.044373	0.003812	10.827292	-11.793210	22.299208	-7.189052	6.757562	-4.978693	54.302378	15.589001	-19.697488	131.300707	37.201754	19.284139	-16.792617	10.266292	-9.037447	-15.986689	-0.193009	-7.973218	2.579604	52.995515	47.474032	-2.559771	117.644634	30.580206	-6.749355	-13.651718	
3.2100	4.105427	-3.548210	11.652766	-0.113731	1.044326	0.003896	10.817173	-11.888907	22.164909	-7.195249	6.543977	-4.878864	54.311432	15.442777	-19.744190	131.533029	37.706625	19.403121	-16.424087	10.288219	-9.108554	-15.971252	-0.197204	-8.128100	2.540641	53.015114	47.475179	-2.810314	117.850045	30.675316	-6.735086	-13.733545	
3.2200	4.135933	-3.454156	11.623347	-0.113557	1.044381	0.003945	10.769913	-12.055744	21.965986	-7.263646	6.323770	-4.716157	54.408838	15.279828	-19.845388	131.785899	38.777770	19.583724	-15.577325	10.297132	-9.200769	-15.939606	-0.175761	-8.268929	2.488670	53.040057	47.496992	-3.086777	118.020298	30.828956	-6.722057	-13.829205	
